<svg xmlns="http://www.w3.org/2000/svg" xmlns:xlink="http://www.w3.org/1999/xlink" width="500" zoomAndPan="magnify" viewBox="0 0 375 374.999991" height="500" preserveAspectRatio="xMidYMid meet" version="1.0"><defs><g/><clipPath id="e09459e512"><path d="M 184 112.894531 L 191 112.894531 L 191 122 L 184 122 Z M 184 112.894531 " clip-rule="nonzero"/></clipPath><clipPath id="9f2590faca"><path d="M 143.261719 149 L 148 149 L 148 154 L 143.261719 154 Z M 143.261719 149 " clip-rule="nonzero"/></clipPath><clipPath id="12815bbf90"><path d="M 226 150 L 231.761719 150 L 231.761719 155 L 226 155 Z M 226 150 " clip-rule="nonzero"/></clipPath><clipPath id="320d0ec792"><path d="M 172 156 L 214 156 L 214 221.644531 L 172 221.644531 Z M 172 156 " clip-rule="nonzero"/></clipPath><clipPath id="2e9fada897"><path d="M 187 199 L 201 199 L 201 221.644531 L 187 221.644531 Z M 187 199 " clip-rule="nonzero"/></clipPath></defs><rect x="-37.5" width="450" fill="#ffffff" y="-37.499999" height="449.999989" fill-opacity="1"/><rect x="-37.5" width="450" fill="#ffffff" y="-37.499999" height="449.999989" fill-opacity="1"/><rect x="-37.5" width="450" fill="#ffffff" y="-37.499999" height="449.999989" fill-opacity="1"/><g clip-path="url(#e09459e512)"><path fill="#d80797" d="M 184.699219 117.375 C 184.699219 115.460938 186.414062 114.269531 187.5 112.921875 C 188.609375 114.246094 190.191406 115.507812 190.28125 117.375 C 190.453125 119.371094 188.609375 120.609375 187.476562 122 C 186.371094 120.609375 184.546875 119.371094 184.699219 117.375 Z M 184.699219 117.375 " fill-opacity="1" fill-rule="nonzero"/></g><path fill="#d80797" d="M 171.34375 122.410156 C 171.039062 119.414062 173.492188 117.308594 175.1875 115.203125 C 177.226562 117.027344 179.984375 118.742188 180.179688 121.761719 C 180.507812 124.824219 178.007812 126.972656 176.273438 129.121094 C 174.253906 127.234375 171.429688 125.472656 171.34375 122.410156 Z M 171.34375 122.410156 " fill-opacity="1" fill-rule="nonzero"/><path fill="#d80797" d="M 194.753906 121.695312 C 194.992188 118.699219 197.730469 116.984375 199.792969 115.203125 C 201.484375 117.285156 204.003906 119.371094 203.613281 122.367188 C 203.570312 125.429688 200.703125 127.191406 198.707031 129.058594 C 196.902344 126.949219 194.382812 124.800781 194.753906 121.695312 Z M 194.753906 121.695312 " fill-opacity="1" fill-rule="nonzero"/><path fill="#d80797" d="M 163.804688 119.132812 C 164.957031 119.566406 166.390625 119.785156 167.085938 120.933594 C 167.496094 122.171875 167.105469 123.496094 167.0625 124.777344 C 165.671875 124.691406 164.414062 124.128906 163.261719 123.410156 C 163.394531 121.976562 163.566406 120.542969 163.804688 119.132812 Z M 163.804688 119.132812 " fill-opacity="1" fill-rule="nonzero"/><path fill="#d80797" d="M 207.894531 120.914062 C 208.609375 119.957031 209.804688 119.523438 210.78125 118.871094 C 211.324219 120.285156 211.648438 121.78125 211.738281 123.324219 C 210.585938 124.039062 209.328125 124.605469 207.980469 124.886719 C 207.894531 123.585938 207.457031 122.195312 207.894531 120.914062 Z M 207.894531 120.914062 " fill-opacity="1" fill-rule="nonzero"/><path fill="#d80797" d="M 155.359375 130.035156 C 155.945312 128.535156 157.183594 127.449219 158.160156 126.234375 C 159.484375 127.625 161.460938 128.96875 161.179688 131.183594 C 161.222656 133.183594 159.355469 134.335938 158.179688 135.660156 C 156.8125 134.09375 154.726562 132.402344 155.359375 130.035156 Z M 155.359375 130.035156 " fill-opacity="1" fill-rule="nonzero"/><path fill="#d80797" d="M 213.648438 131.121094 C 213.582031 128.992188 215.472656 127.601562 216.796875 126.210938 C 217.992188 127.820312 220.097656 129.339844 219.664062 131.621094 C 219.273438 133.292969 217.796875 134.398438 216.730469 135.679688 C 215.496094 134.335938 213.757812 133.117188 213.648438 131.121094 Z M 213.648438 131.121094 " fill-opacity="1" fill-rule="nonzero"/><path fill="#d80797" d="M 167.085938 131.035156 C 170.320312 132.664062 174.273438 134.636719 174.902344 138.613281 C 175.816406 142.390625 173.078125 145.539062 171.191406 148.472656 C 167.996094 146.625 163.847656 144.714844 163.457031 140.546875 C 162.675781 136.855469 165.371094 133.945312 167.085938 131.035156 Z M 167.085938 131.035156 " fill-opacity="1" fill-rule="nonzero"/><path fill="#d80797" d="M 200.03125 138.527344 C 200.703125 134.550781 204.679688 132.726562 207.847656 131.011719 C 208.980469 132.902344 210.347656 134.683594 211.195312 136.746094 C 212.191406 139.632812 211.390625 143.128906 209 145.105469 C 207.394531 146.429688 205.546875 147.429688 203.765625 148.492188 C 201.921875 145.519531 199.03125 142.347656 200.03125 138.527344 Z M 200.03125 138.527344 " fill-opacity="1" fill-rule="nonzero"/><path fill="#d80797" d="M 148.777344 131.859375 C 149.886719 131.945312 150.992188 132.074219 152.101562 132.183594 C 152.382812 133.421875 152.664062 134.636719 152.902344 135.898438 C 151.601562 135.746094 150.320312 135.527344 149.039062 135.203125 C 148.929688 134.074219 148.84375 132.964844 148.777344 131.859375 Z M 148.777344 131.859375 " fill-opacity="1" fill-rule="nonzero"/><path fill="#d80797" d="M 148.039062 139.351562 C 150.753906 139.394531 154.011719 140.109375 155.207031 142.847656 C 156.683594 145.234375 155.335938 148.015625 154.621094 150.40625 C 152.296875 149.558594 149.386719 149.253906 147.953125 146.953125 C 146.453125 144.628906 147.5625 141.804688 148.039062 139.351562 Z M 148.039062 139.351562 " fill-opacity="1" fill-rule="nonzero"/><path fill="#d80797" d="M 219.707031 142.78125 C 220.96875 140.175781 224.09375 139.761719 226.546875 138.917969 C 227.285156 141.414062 228.65625 144.347656 227.070312 146.800781 C 225.746094 149.277344 222.703125 149.558594 220.316406 150.425781 C 219.621094 147.996094 218.273438 145.191406 219.707031 142.78125 Z M 219.707031 142.78125 " fill-opacity="1" fill-rule="nonzero"/><path fill="#d80797" d="M 159.113281 149.621094 C 158.332031 147.972656 159.550781 146.410156 160.265625 144.996094 C 161.480469 146.039062 163.566406 146.757812 163.566406 148.667969 C 163.394531 149.882812 162.742188 150.949219 162.265625 152.078125 C 161.179688 151.339844 159.808594 150.796875 159.113281 149.621094 Z M 159.113281 149.621094 " fill-opacity="1" fill-rule="nonzero"/><path fill="#d80797" d="M 211.410156 148.625 C 211.347656 146.757812 213.386719 145.996094 214.582031 144.953125 C 215.253906 146.257812 216.449219 147.625 215.949219 149.1875 C 215.515625 150.707031 213.820312 151.230469 212.648438 152.054688 C 212.214844 150.949219 211.476562 149.863281 211.410156 148.625 Z M 211.410156 148.625 " fill-opacity="1" fill-rule="nonzero"/><g clip-path="url(#9f2590faca)"><path fill="#d80797" d="M 143.261719 149.535156 C 144.261719 149.839844 145.453125 149.753906 146.300781 150.425781 C 147.148438 151.207031 147.257812 152.445312 147.582031 153.488281 C 146.214844 153.335938 144.867188 153.074219 143.566406 152.640625 C 143.433594 151.597656 143.347656 150.558594 143.261719 149.535156 Z M 143.261719 149.535156 " fill-opacity="1" fill-rule="nonzero"/></g><path fill="#d80797" d="M 176.945312 149.820312 C 179.464844 151.101562 182.484375 152.46875 183.285156 155.488281 C 184.265625 158.546875 181.984375 161.199219 180.636719 163.71875 C 178.183594 162.347656 175.1875 161.066406 174.339844 158.136719 C 173.210938 155.050781 175.597656 152.382812 176.945312 149.820312 Z M 176.945312 149.820312 " fill-opacity="1" fill-rule="nonzero"/><path fill="#d80797" d="M 191.625 155.617188 C 192.300781 152.511719 195.46875 151.121094 198.011719 149.839844 C 199.464844 152.445312 201.878906 155.355469 200.488281 158.503906 C 199.554688 161.261719 196.6875 162.414062 194.320312 163.695312 C 192.886719 161.242188 190.800781 158.65625 191.625 155.617188 Z M 191.625 155.617188 " fill-opacity="1" fill-rule="nonzero"/><g clip-path="url(#12815bbf90)"><path fill="#d80797" d="M 226.289062 153.878906 C 226.960938 152.511719 227.9375 151.359375 229.371094 150.773438 C 230.152344 151.121094 230.957031 151.445312 231.761719 151.792969 C 231.238281 152.578125 230.695312 153.359375 230.175781 154.140625 C 228.871094 154.074219 227.570312 153.988281 226.289062 153.878906 Z M 226.289062 153.878906 " fill-opacity="1" fill-rule="nonzero"/></g><path fill="#d80797" d="M 221.226562 136.550781 C 221.617188 135.09375 222.355469 133.75 223.636719 132.902344 C 224.484375 133.074219 225.332031 133.25 226.179688 133.421875 C 225.808594 134.292969 225.441406 135.160156 225.070312 136.027344 C 223.789062 136.246094 222.507812 136.417969 221.226562 136.550781 Z M 221.226562 136.550781 " fill-opacity="1" fill-rule="nonzero"/><path fill="#d80797" d="M 145.257812 156.917969 C 147.996094 157.941406 151.273438 158.832031 152.46875 161.804688 C 153.925781 164.238281 153.035156 167.105469 152.578125 169.6875 C 150.082031 168.667969 147.039062 167.972656 145.648438 165.390625 C 143.976562 162.871094 144.738281 159.699219 145.257812 156.917969 Z M 145.257812 156.917969 " fill-opacity="1" fill-rule="nonzero"/><path fill="#d80797" d="M 222.007812 161.804688 C 223.488281 159.351562 226.398438 158.527344 228.914062 157.59375 C 229.308594 160.222656 230.242188 163.085938 228.765625 165.5625 C 227.546875 168.496094 224.226562 169.234375 221.617188 170.382812 C 221.054688 167.582031 220.207031 164.347656 222.007812 161.804688 Z M 222.007812 161.804688 " fill-opacity="1" fill-rule="nonzero"/><path fill="#d80797" d="M 214.753906 173.359375 C 215.753906 172.554688 217.078125 172.382812 218.273438 171.992188 C 218.316406 173.511719 219.097656 175.292969 218.035156 176.617188 C 217.167969 177.855469 215.515625 177.789062 214.214844 178.203125 C 214.191406 176.636719 213.367188 174.597656 214.753906 173.359375 Z M 214.753906 173.359375 " fill-opacity="1" fill-rule="nonzero"/><path fill="#d80797" d="M 155.011719 173.554688 C 156.507812 173.925781 157.921875 174.511719 159.179688 175.402344 C 159.113281 176.878906 159.027344 178.355469 158.875 179.808594 C 157.574219 179.308594 155.8125 179.332031 155.03125 177.984375 C 154.183594 176.636719 154.859375 174.988281 155.011719 173.554688 Z M 155.011719 173.554688 " fill-opacity="1" fill-rule="nonzero"/><path fill="#d80797" d="M 166.585938 156.136719 C 166.738281 155.488281 166.542969 154.945312 166.214844 154.464844 C 165.628906 153.617188 164.371094 153.640625 163.847656 154.507812 C 163.652344 154.835938 163.5 155.203125 163.457031 155.617188 C 163.066406 158.65625 163.523438 161.71875 164.195312 164.671875 C 165.371094 161.957031 166.261719 159.070312 166.585938 156.136719 Z M 166.585938 156.136719 " fill-opacity="1" fill-rule="nonzero"/><path fill="#d80797" d="M 208.371094 156.160156 C 208.4375 155.636719 208.285156 155.183594 208.066406 154.75 C 207.503906 153.707031 206.023438 153.683594 205.460938 154.726562 C 205.308594 154.988281 205.222656 155.269531 205.242188 155.59375 C 205.285156 158.722656 206.371094 161.71875 207.589844 164.5625 C 207.894531 161.804688 208.414062 158.984375 208.371094 156.160156 Z M 208.371094 156.160156 " fill-opacity="1" fill-rule="nonzero"/><path fill="#d80797" d="M 181.898438 185.5625 C 182.113281 182.589844 183.332031 179.808594 184.808594 177.246094 C 181.09375 171.925781 175.988281 167.582031 170.429688 164.324219 C 170.453125 165.824219 170.210938 167.472656 171.167969 168.777344 C 172.882812 171.558594 175.292969 173.792969 177.207031 176.421875 C 176.511719 177.09375 175.773438 178.375 174.601562 177.8125 C 171.101562 176.140625 168.0625 173.511719 165.566406 170.558594 C 162.523438 166.886719 162.089844 161.980469 161.546875 157.460938 C 161.527344 155.835938 159.136719 154.550781 158.3125 156.375 C 157.421875 160.023438 158.441406 163.824219 158.855469 167.496094 C 159.527344 173.011719 162.308594 178.027344 165.914062 182.15625 C 170.125 186.933594 174.96875 191.082031 179.441406 195.617188 C 180.703125 192.363281 181.65625 189.015625 181.898438 185.5625 Z M 181.898438 185.5625 " fill-opacity="1" fill-rule="nonzero"/><g clip-path="url(#320d0ec792)"><path fill="#d80797" d="M 213.214844 163.695312 C 212.671875 168.277344 212.105469 173.054688 209.804688 177.160156 C 205.808594 184.390625 199.207031 189.558594 193.472656 195.292969 C 191.820312 196.964844 189.628906 198.398438 189.105469 200.832031 C 187.371094 207.300781 185.71875 213.90625 185.328125 220.613281 L 185.328125 221.375 L 184.328125 221.375 C 180.289062 221.613281 176.25 221.351562 172.210938 221.460938 C 172.40625 220.898438 172.601562 220.332031 172.796875 219.769531 C 175.511719 210.582031 179.53125 201.828125 182.699219 192.796875 C 184.308594 188.691406 183.527344 184 185.742188 180.089844 C 188.433594 174.640625 193.40625 170.925781 198.03125 167.234375 C 198.96875 166.519531 200.03125 166.039062 201.050781 165.519531 C 201.636719 170.730469 196.664062 173.75 194.167969 177.636719 C 194.949219 178.417969 195.925781 179.742188 197.164062 178.832031 C 202.160156 176.007812 207.066406 171.90625 208.632812 166.148438 C 209.476562 163.5 209.261719 160.65625 210.019531 158.003906 C 210.476562 156.550781 212.367188 156.050781 213.148438 157.550781 C 213.625 159.589844 213.386719 161.675781 213.214844 163.695312 Z M 213.214844 163.695312 " fill-opacity="1" fill-rule="nonzero"/></g><path fill="#d80797" d="M 167.910156 171.164062 C 168.824219 166.867188 171.125 162.566406 170.167969 158.09375 C 169.820312 157.941406 169.125 157.613281 168.757812 157.460938 C 167.605469 160.675781 166.457031 163.914062 165.109375 167.0625 C 165.976562 168.472656 166.910156 169.839844 167.910156 171.164062 Z M 167.910156 171.164062 " fill-opacity="1" fill-rule="nonzero"/><path fill="#d80797" d="M 204.484375 171.210938 C 205.351562 169.644531 206.699219 168.125 206.808594 166.300781 C 205.894531 163.152344 204.65625 160.070312 203.265625 157.070312 C 202.59375 158.332031 201.464844 159.65625 201.964844 161.199219 C 202.570312 164.585938 203.65625 167.863281 204.484375 171.210938 Z M 204.484375 171.210938 " fill-opacity="1" fill-rule="nonzero"/><g clip-path="url(#2e9fada897)"><path fill="#d80797" d="M 191.777344 199.59375 C 189.628906 206.347656 188.324219 213.339844 187.371094 220.332031 C 187.328125 220.613281 187.238281 221.179688 187.195312 221.484375 C 191.472656 221.460938 195.773438 221.484375 200.054688 221.460938 C 199.921875 220.898438 199.792969 220.332031 199.640625 219.789062 C 197.859375 212.773438 194.6875 206.214844 191.777344 199.59375 Z M 191.777344 199.59375 " fill-opacity="1" fill-rule="nonzero"/></g><path fill="#d80797" d="M 179.878906 136.917969 C 179.898438 131.726562 184.546875 128.449219 187.523438 124.777344 C 190.5625 128.40625 194.863281 131.816406 195.121094 136.917969 C 195.578125 142.347656 190.539062 145.734375 187.5 149.515625 C 184.4375 145.757812 179.484375 142.371094 179.878906 136.917969 Z M 179.878906 136.917969 " fill-opacity="1" fill-rule="nonzero"/><g fill="#000000" fill-opacity="1"><g transform="translate(93.668347, 247.323308)"><g><path d="M 1.03125 0 L 4.515625 0 C 4.738281 0 4.898438 -0.109375 4.898438 -0.300781 L 4.898438 -0.363281 C 4.898438 -0.808594 4.183594 -1 4.183594 -1.726562 L 4.183594 -4.722656 L 5.957031 -4.722656 C 6.6875 -4.722656 6.910156 -3.535156 7.367188 -3.535156 L 7.511719 -3.535156 C 7.703125 -3.535156 7.8125 -3.675781 7.8125 -3.898438 L 7.8125 -6.75 C 7.8125 -6.972656 7.703125 -7.117188 7.511719 -7.117188 L 7.367188 -7.117188 C 6.910156 -7.117188 6.6875 -5.832031 5.957031 -5.832031 L 4.183594 -5.832031 L 4.183594 -9.382812 C 4.183594 -9.953125 4.53125 -10.140625 4.914062 -10.140625 L 6.433594 -10.140625 C 7.558594 -10.140625 8.019531 -8.289062 8.90625 -8.289062 L 8.984375 -8.289062 C 9.253906 -8.289062 9.429688 -8.460938 9.382812 -8.746094 L 9 -10.746094 C 8.9375 -11.09375 8.8125 -11.25 8.460938 -11.25 L 1.015625 -11.25 C 0.792969 -11.25 0.648438 -11.140625 0.648438 -10.949219 L 0.648438 -10.886719 C 0.648438 -10.445312 1.285156 -10.253906 1.285156 -9.523438 L 1.285156 -1.726562 C 1.285156 -1 0.648438 -0.808594 0.648438 -0.363281 L 0.648438 -0.300781 C 0.648438 -0.109375 0.808594 0 1.03125 0 Z M 1.03125 0 "/></g></g></g><g fill="#000000" fill-opacity="1"><g transform="translate(104.331832, 247.323308)"><g><path d="M 0.394531 0 L 2.742188 0 C 2.980469 0 3.121094 -0.109375 3.121094 -0.300781 L 3.121094 -0.363281 C 3.121094 -0.808594 2.1875 -1 2.441406 -1.726562 L 2.789062 -2.710938 L 6.796875 -2.710938 L 7.164062 -1.726562 C 7.433594 -1.015625 6.480469 -0.808594 6.480469 -0.363281 L 6.480469 -0.300781 C 6.480469 -0.109375 6.625 0 6.863281 0 L 10.917969 0 C 11.15625 0 11.300781 -0.109375 11.300781 -0.300781 L 11.300781 -0.363281 C 11.300781 -0.808594 10.730469 -0.902344 10.378906 -1.726562 L 7.050781 -9.445312 C 6.75 -10.160156 7.65625 -10.523438 7.65625 -10.886719 L 7.65625 -10.949219 C 7.65625 -11.140625 7.496094 -11.25 7.289062 -11.25 L 3.644531 -11.25 C 3.421875 -11.25 3.28125 -11.140625 3.28125 -10.949219 L 3.28125 -10.886719 C 3.28125 -10.507812 4.136719 -10.015625 3.898438 -9.398438 L 0.933594 -1.726562 C 0.601562 -0.886719 0.015625 -0.808594 0.015625 -0.363281 L 0.015625 -0.300781 C 0.015625 -0.109375 0.160156 0 0.394531 0 Z M 3.21875 -3.898438 L 4.800781 -8.289062 L 6.402344 -3.898438 Z M 3.21875 -3.898438 "/></g></g></g><g fill="#000000" fill-opacity="1"><g transform="translate(116.674762, 247.323308)"><g><path d="M 13.46875 -1.742188 L 12.011719 -9.476562 C 11.871094 -10.238281 12.628906 -10.445312 12.628906 -10.886719 L 12.628906 -10.949219 C 12.628906 -11.140625 12.488281 -11.25 12.265625 -11.25 L 8.746094 -11.25 C 8.527344 -11.25 8.382812 -11.140625 8.382812 -10.949219 L 8.382812 -10.886719 C 8.382812 -10.554688 9.144531 -10.222656 8.9375 -9.605469 L 7.066406 -3.992188 L 5.183594 -9.476562 C 4.945312 -10.160156 5.640625 -10.539062 5.640625 -10.886719 L 5.640625 -10.949219 C 5.640625 -11.140625 5.5 -11.25 5.277344 -11.25 L 1.824219 -11.25 C 1.601562 -11.25 1.457031 -11.140625 1.457031 -10.949219 L 1.457031 -10.886719 C 1.457031 -10.445312 2.1875 -10.238281 2.074219 -9.507812 L 0.871094 -1.742188 C 0.761719 -1.015625 0.222656 -0.808594 0.222656 -0.363281 L 0.222656 -0.300781 C 0.222656 -0.109375 0.378906 0 0.601562 0 L 2.566406 0 C 2.789062 0 2.949219 -0.109375 2.949219 -0.300781 L 2.949219 -0.363281 C 2.949219 -0.808594 2.265625 -1.015625 2.378906 -1.742188 L 3.21875 -7.589844 L 6.023438 -0.460938 C 6.148438 -0.144531 6.355469 -0.015625 6.671875 -0.015625 C 6.988281 -0.015625 7.132812 -0.160156 7.242188 -0.476562 L 9.667969 -7.304688 L 10.617188 -1.742188 C 10.746094 -1.03125 10.0625 -0.808594 10.0625 -0.363281 L 10.0625 -0.300781 C 10.0625 -0.109375 10.207031 0 10.445312 0 L 13.738281 0 C 13.976562 0 14.121094 -0.109375 14.121094 -0.300781 L 14.121094 -0.363281 C 14.121094 -0.808594 13.613281 -1.015625 13.46875 -1.742188 Z M 13.46875 -1.742188 "/></g></g></g><g fill="#000000" fill-opacity="1"><g transform="translate(132.075552, 247.323308)"><g/></g></g><g fill="#000000" fill-opacity="1"><g transform="translate(136.290611, 247.323308)"><g><path d="M 1.03125 0 L 5.5625 0 C 9.335938 0 11.773438 -2.265625 11.773438 -5.5625 C 11.773438 -8.890625 9.269531 -11.25 4.769531 -11.25 L 1.03125 -11.25 C 0.808594 -11.25 0.648438 -11.140625 0.648438 -10.949219 L 0.648438 -10.886719 C 0.648438 -10.445312 1.285156 -10.253906 1.285156 -9.523438 L 1.285156 -1.726562 C 1.285156 -1 0.648438 -0.808594 0.648438 -0.363281 L 0.648438 -0.300781 C 0.648438 -0.109375 0.808594 0 1.03125 0 Z M 5.5 -1.109375 C 4.628906 -1.109375 4.121094 -1.710938 4.121094 -2.742188 L 4.121094 -9.382812 C 4.121094 -9.953125 4.453125 -10.140625 4.832031 -10.140625 L 5.007812 -10.140625 C 7.179688 -10.140625 8.761719 -7.320312 8.761719 -4.230469 C 8.761719 -2.15625 7.621094 -1.109375 6.132812 -1.109375 Z M 5.5 -1.109375 "/></g></g></g><g fill="#000000" fill-opacity="1"><g transform="translate(149.584165, 247.323308)"><g><path d="M 0.394531 0 L 2.742188 0 C 2.980469 0 3.121094 -0.109375 3.121094 -0.300781 L 3.121094 -0.363281 C 3.121094 -0.808594 2.1875 -1 2.441406 -1.726562 L 2.789062 -2.710938 L 6.796875 -2.710938 L 7.164062 -1.726562 C 7.433594 -1.015625 6.480469 -0.808594 6.480469 -0.363281 L 6.480469 -0.300781 C 6.480469 -0.109375 6.625 0 6.863281 0 L 10.917969 0 C 11.15625 0 11.300781 -0.109375 11.300781 -0.300781 L 11.300781 -0.363281 C 11.300781 -0.808594 10.730469 -0.902344 10.378906 -1.726562 L 7.050781 -9.445312 C 6.75 -10.160156 7.65625 -10.523438 7.65625 -10.886719 L 7.65625 -10.949219 C 7.65625 -11.140625 7.496094 -11.25 7.289062 -11.25 L 3.644531 -11.25 C 3.421875 -11.25 3.28125 -11.140625 3.28125 -10.949219 L 3.28125 -10.886719 C 3.28125 -10.507812 4.136719 -10.015625 3.898438 -9.398438 L 0.933594 -1.726562 C 0.601562 -0.886719 0.015625 -0.808594 0.015625 -0.363281 L 0.015625 -0.300781 C 0.015625 -0.109375 0.160156 0 0.394531 0 Z M 3.21875 -3.898438 L 4.800781 -8.289062 L 6.402344 -3.898438 Z M 3.21875 -3.898438 "/></g></g></g><g fill="#000000" fill-opacity="1"><g transform="translate(161.927092, 247.323308)"><g><path d="M 0.648438 -0.300781 C 0.648438 -0.109375 0.808594 0 1.03125 0 L 4.46875 0 C 4.707031 0 4.847656 -0.109375 4.847656 -0.300781 L 4.847656 -0.363281 C 4.847656 -0.808594 4.152344 -1 4.152344 -1.726562 L 4.152344 -9.523438 C 4.152344 -10.253906 4.847656 -10.445312 4.847656 -10.886719 L 4.847656 -10.949219 C 4.847656 -11.140625 4.707031 -11.25 4.46875 -11.25 L 1.03125 -11.25 C 0.808594 -11.25 0.648438 -11.140625 0.648438 -10.949219 L 0.648438 -10.886719 C 0.648438 -10.445312 1.285156 -10.253906 1.285156 -9.523438 L 1.285156 -1.726562 C 1.285156 -1 0.648438 -0.808594 0.648438 -0.363281 Z M 0.648438 -0.300781 "/></g></g></g><g fill="#000000" fill-opacity="1"><g transform="translate(168.534561, 247.323308)"><g><path d="M 1.03125 0 L 8.511719 0 C 8.859375 0 9 -0.160156 9.066406 -0.507812 L 9.476562 -2.964844 C 9.523438 -3.203125 9.398438 -3.359375 9.160156 -3.359375 L 8.9375 -3.359375 C 8.191406 -3.359375 7.941406 -1.109375 6.609375 -1.109375 L 4.960938 -1.109375 C 4.421875 -1.109375 4.183594 -1.617188 4.183594 -2.140625 L 4.183594 -9.523438 C 4.183594 -10.253906 4.898438 -10.445312 4.898438 -10.886719 L 4.898438 -10.949219 C 4.898438 -11.140625 4.738281 -11.25 4.515625 -11.25 L 1.03125 -11.25 C 0.808594 -11.25 0.648438 -11.140625 0.648438 -10.949219 L 0.648438 -10.886719 C 0.648438 -10.445312 1.285156 -10.253906 1.285156 -9.523438 L 1.285156 -1.726562 C 1.285156 -1 0.648438 -0.808594 0.648438 -0.363281 L 0.648438 -0.300781 C 0.648438 -0.109375 0.808594 0 1.03125 0 Z M 1.03125 0 "/></g></g></g><g fill="#000000" fill-opacity="1"><g transform="translate(179.277272, 247.323308)"><g><path d="M 10.570312 -11.25 L 8.210938 -11.25 C 7.988281 -11.25 7.828125 -11.140625 7.828125 -10.949219 L 7.828125 -10.886719 C 7.828125 -10.445312 8.90625 -10.253906 8.511719 -9.523438 L 6.417969 -5.722656 L 4.308594 -9.523438 C 3.929688 -10.207031 4.992188 -10.445312 4.992188 -10.886719 L 4.992188 -10.949219 C 4.992188 -11.140625 4.832031 -11.25 4.613281 -11.25 L 0.316406 -11.25 C 0.09375 -11.25 -0.0625 -11.140625 -0.0625 -10.949219 L -0.0625 -10.886719 C -0.0625 -10.445312 0.539062 -10.300781 1.03125 -9.523438 L 4.230469 -4.359375 L 4.230469 -1.726562 C 4.230469 -1 3.597656 -0.808594 3.597656 -0.363281 L 3.597656 -0.300781 C 3.597656 -0.109375 3.753906 0 3.976562 0 L 7.464844 0 C 7.703125 0 7.84375 -0.109375 7.84375 -0.300781 L 7.84375 -0.363281 C 7.84375 -0.808594 7.148438 -1 7.148438 -1.726562 L 7.148438 -4.613281 L 9.890625 -9.523438 C 10.347656 -10.363281 10.933594 -10.445312 10.933594 -10.886719 L 10.933594 -10.949219 C 10.933594 -11.140625 10.792969 -11.25 10.570312 -11.25 Z M 10.570312 -11.25 "/></g></g></g><g fill="#000000" fill-opacity="1"><g transform="translate(191.414229, 247.323308)"><g/></g></g><g fill="#000000" fill-opacity="1"><g transform="translate(195.629293, 247.323308)"><g><path d="M 5.816406 0.160156 C 8.796875 0.160156 10.207031 -1.789062 10.285156 -3.804688 C 10.300781 -4.328125 9.714844 -4.4375 9.414062 -4.089844 C 8.953125 -3.421875 8.210938 -2.410156 6.734375 -2.410156 C 4.929688 -2.410156 3.167969 -4.421875 3.167969 -7.511719 C 3.167969 -9.269531 4.089844 -10.269531 5.085938 -10.269531 C 6.988281 -10.269531 6.957031 -7.117188 8.9375 -7.117188 C 9.761719 -7.117188 10.253906 -7.636719 10.253906 -8.367188 C 10.253906 -10.03125 8.128906 -11.394531 5.65625 -11.394531 C 2.472656 -11.394531 0.378906 -8.984375 0.378906 -5.769531 C 0.378906 -2.695312 2.648438 0.160156 5.816406 0.160156 Z M 5.816406 0.160156 "/></g></g></g><g fill="#000000" fill-opacity="1"><g transform="translate(207.386014, 247.323308)"><g><path d="M 0.394531 0 L 2.742188 0 C 2.980469 0 3.121094 -0.109375 3.121094 -0.300781 L 3.121094 -0.363281 C 3.121094 -0.808594 2.1875 -1 2.441406 -1.726562 L 2.789062 -2.710938 L 6.796875 -2.710938 L 7.164062 -1.726562 C 7.433594 -1.015625 6.480469 -0.808594 6.480469 -0.363281 L 6.480469 -0.300781 C 6.480469 -0.109375 6.625 0 6.863281 0 L 10.917969 0 C 11.15625 0 11.300781 -0.109375 11.300781 -0.300781 L 11.300781 -0.363281 C 11.300781 -0.808594 10.730469 -0.902344 10.378906 -1.726562 L 7.050781 -9.445312 C 6.75 -10.160156 7.65625 -10.523438 7.65625 -10.886719 L 7.65625 -10.949219 C 7.65625 -11.140625 7.496094 -11.25 7.289062 -11.25 L 3.644531 -11.25 C 3.421875 -11.25 3.28125 -11.140625 3.28125 -10.949219 L 3.28125 -10.886719 C 3.28125 -10.507812 4.136719 -10.015625 3.898438 -9.398438 L 0.933594 -1.726562 C 0.601562 -0.886719 0.015625 -0.808594 0.015625 -0.363281 L 0.015625 -0.300781 C 0.015625 -0.109375 0.160156 0 0.394531 0 Z M 3.21875 -3.898438 L 4.800781 -8.289062 L 6.402344 -3.898438 Z M 3.21875 -3.898438 "/></g></g></g><g fill="#000000" fill-opacity="1"><g transform="translate(219.728947, 247.323308)"><g><path d="M 10.269531 -1.617188 C 10.207031 -3.058594 9.585938 -4.214844 8.382812 -4.960938 C 9.445312 -5.625 10.09375 -6.703125 10.09375 -7.671875 C 10.09375 -10.046875 8.191406 -11.25 5.292969 -11.25 L 1.03125 -11.25 C 0.808594 -11.25 0.648438 -11.140625 0.648438 -10.949219 L 0.648438 -10.886719 C 0.648438 -10.445312 1.285156 -10.253906 1.285156 -9.523438 L 1.285156 -1.726562 C 1.285156 -1 0.648438 -0.808594 0.648438 -0.363281 L 0.648438 -0.300781 C 0.648438 -0.109375 0.808594 0 1.03125 0 L 4.515625 0 C 4.738281 0 4.898438 -0.109375 4.898438 -0.300781 L 4.898438 -0.363281 C 4.898438 -0.808594 4.183594 -1 4.183594 -1.726562 L 4.183594 -4.277344 L 5.941406 -4.292969 C 6.894531 -3.789062 7.320312 -2.726562 7.335938 -1.488281 C 7.335938 -0.917969 6.847656 -0.808594 6.847656 -0.363281 L 6.847656 -0.300781 C 6.847656 -0.109375 6.988281 0 7.226562 0 L 10.570312 0 C 10.792969 0 10.949219 -0.109375 10.949219 -0.300781 L 10.949219 -0.363281 C 10.949219 -0.808594 10.300781 -1.015625 10.269531 -1.617188 Z M 5.199219 -5.355469 C 4.53125 -5.355469 4.183594 -5.707031 4.183594 -6.625 L 4.183594 -9.316406 C 4.183594 -9.792969 4.421875 -10.140625 4.785156 -10.140625 L 5.070312 -10.140625 C 6.039062 -10.140625 7.101562 -9.082031 7.101562 -7.367188 C 7.101562 -6.007812 6.449219 -5.355469 5.640625 -5.355469 Z M 5.199219 -5.355469 "/></g></g></g><g fill="#000000" fill-opacity="1"><g transform="translate(231.945137, 247.323308)"><g><path d="M 1.03125 0 L 8.667969 0 C 9.03125 0 9.160156 -0.160156 9.222656 -0.507812 L 9.570312 -2.582031 C 9.605469 -2.789062 9.492188 -3.058594 9.238281 -3.058594 L 9.097656 -3.058594 C 8.144531 -3.058594 7.875 -1.09375 6.75 -1.09375 L 5.085938 -1.09375 C 4.359375 -1.09375 4.136719 -1.710938 4.136719 -2.25 L 4.136719 -5.167969 L 5.800781 -5.167969 C 6.640625 -5.167969 6.734375 -3.960938 7.195312 -3.960938 L 7.320312 -3.960938 C 7.511719 -3.960938 7.636719 -4.105469 7.636719 -4.328125 L 7.636719 -7.179688 C 7.636719 -7.402344 7.511719 -7.542969 7.320312 -7.542969 L 7.195312 -7.542969 C 6.734375 -7.542969 6.640625 -6.277344 5.800781 -6.277344 L 4.136719 -6.277344 L 4.136719 -9.382812 C 4.136719 -9.96875 4.46875 -10.160156 4.847656 -10.160156 L 6.242188 -10.160156 C 7.367188 -10.160156 7.828125 -8.304688 8.714844 -8.304688 L 8.796875 -8.304688 C 9.066406 -8.304688 9.238281 -8.476562 9.191406 -8.761719 L 8.8125 -10.761719 C 8.746094 -11.109375 8.621094 -11.25 8.273438 -11.25 L 1.015625 -11.25 C 0.792969 -11.25 0.648438 -11.140625 0.648438 -10.949219 L 0.648438 -10.886719 C 0.648438 -10.445312 1.285156 -10.253906 1.285156 -9.507812 L 1.285156 -1.742188 C 1.285156 -1 0.648438 -0.808594 0.648438 -0.363281 L 0.648438 -0.300781 C 0.648438 -0.109375 0.808594 0 1.03125 0 Z M 1.03125 0 "/></g></g></g><g fill="#000000" fill-opacity="1"><g transform="translate(242.909663, 247.323308)"><g/></g></g><g fill="#000000" fill-opacity="1"><g transform="translate(247.124728, 247.323308)"><g><path d="M 1.03125 0 L 8.511719 0 C 8.859375 0 9 -0.160156 9.066406 -0.507812 L 9.476562 -2.964844 C 9.523438 -3.203125 9.398438 -3.359375 9.160156 -3.359375 L 8.9375 -3.359375 C 8.191406 -3.359375 7.941406 -1.109375 6.609375 -1.109375 L 4.960938 -1.109375 C 4.421875 -1.109375 4.183594 -1.617188 4.183594 -2.140625 L 4.183594 -9.523438 C 4.183594 -10.253906 4.898438 -10.445312 4.898438 -10.886719 L 4.898438 -10.949219 C 4.898438 -11.140625 4.738281 -11.25 4.515625 -11.25 L 1.03125 -11.25 C 0.808594 -11.25 0.648438 -11.140625 0.648438 -10.949219 L 0.648438 -10.886719 C 0.648438 -10.445312 1.285156 -10.253906 1.285156 -9.523438 L 1.285156 -1.726562 C 1.285156 -1 0.648438 -0.808594 0.648438 -0.363281 L 0.648438 -0.300781 C 0.648438 -0.109375 0.808594 0 1.03125 0 Z M 1.03125 0 "/></g></g></g><g fill="#000000" fill-opacity="1"><g transform="translate(257.867445, 247.323308)"><g><path d="M 3.328125 0 L 6.796875 0 C 7.035156 0 7.179688 -0.109375 7.179688 -0.300781 L 7.179688 -0.363281 C 7.179688 -0.808594 6.496094 -1 6.496094 -1.726562 L 6.496094 -10.0625 L 7.320312 -10.0625 C 8.398438 -10.0625 8.605469 -8.144531 9.351562 -8.144531 L 9.621094 -8.144531 C 9.890625 -8.144531 10.0625 -8.320312 10.015625 -8.589844 L 9.683594 -10.761719 C 9.636719 -11.109375 9.492188 -11.25 9.144531 -11.25 L 1 -11.25 C 0.648438 -11.25 0.492188 -11.109375 0.460938 -10.761719 L 0.144531 -8.605469 C 0.109375 -8.320312 0.269531 -8.144531 0.539062 -8.144531 L 0.808594 -8.144531 C 1.554688 -8.144531 1.742188 -10.0625 2.804688 -10.0625 L 3.644531 -10.0625 L 3.644531 -1.726562 C 3.644531 -1 2.964844 -0.808594 2.964844 -0.363281 L 2.964844 -0.300781 C 2.964844 -0.109375 3.105469 0 3.328125 0 Z M 3.328125 0 "/></g></g></g><g fill="#000000" fill-opacity="1"><g transform="translate(269.132997, 247.323308)"><g><path d="M 1.03125 0 L 5.5625 0 C 9.335938 0 11.773438 -2.265625 11.773438 -5.5625 C 11.773438 -8.890625 9.269531 -11.25 4.769531 -11.25 L 1.03125 -11.25 C 0.808594 -11.25 0.648438 -11.140625 0.648438 -10.949219 L 0.648438 -10.886719 C 0.648438 -10.445312 1.285156 -10.253906 1.285156 -9.523438 L 1.285156 -1.726562 C 1.285156 -1 0.648438 -0.808594 0.648438 -0.363281 L 0.648438 -0.300781 C 0.648438 -0.109375 0.808594 0 1.03125 0 Z M 5.5 -1.109375 C 4.628906 -1.109375 4.121094 -1.710938 4.121094 -2.742188 L 4.121094 -9.382812 C 4.121094 -9.953125 4.453125 -10.140625 4.832031 -10.140625 L 5.007812 -10.140625 C 7.179688 -10.140625 8.761719 -7.320312 8.761719 -4.230469 C 8.761719 -2.15625 7.621094 -1.109375 6.132812 -1.109375 Z M 5.5 -1.109375 "/></g></g></g><g fill="#000000" fill-opacity="1"><g transform="translate(103.909569, 258.252487)"><g><path d="M 4.3125 -3.375 C 4.3125 -2.914062 4.160156 -2.550781 3.859375 -2.28125 C 3.566406 -2.019531 3.164062 -1.890625 2.65625 -1.890625 L 1.234375 -1.890625 L 1.234375 0 L 0.578125 0 L 0.578125 -4.84375 L 2.609375 -4.84375 C 3.148438 -4.84375 3.566406 -4.710938 3.859375 -4.453125 C 4.160156 -4.203125 4.3125 -3.84375 4.3125 -3.375 Z M 3.65625 -3.375 C 3.65625 -4 3.28125 -4.3125 2.53125 -4.3125 L 1.234375 -4.3125 L 1.234375 -2.40625 L 2.5625 -2.40625 C 3.289062 -2.40625 3.65625 -2.726562 3.65625 -3.375 Z M 3.65625 -3.375 "/></g></g></g><g fill="#000000" fill-opacity="1"><g transform="translate(110.319571, 258.252487)"><g><path d="M 4 0 L 2.734375 -2.015625 L 1.234375 -2.015625 L 1.234375 0 L 0.578125 0 L 0.578125 -4.84375 L 2.859375 -4.84375 C 3.398438 -4.84375 3.816406 -4.71875 4.109375 -4.46875 C 4.410156 -4.226562 4.5625 -3.890625 4.5625 -3.453125 C 4.5625 -3.097656 4.457031 -2.796875 4.25 -2.546875 C 4.039062 -2.304688 3.75 -2.148438 3.375 -2.078125 L 4.75 0 Z M 3.90625 -3.453125 C 3.90625 -3.734375 3.804688 -3.945312 3.609375 -4.09375 C 3.421875 -4.238281 3.144531 -4.3125 2.78125 -4.3125 L 1.234375 -4.3125 L 1.234375 -2.53125 L 2.8125 -2.53125 C 3.15625 -2.53125 3.421875 -2.609375 3.609375 -2.765625 C 3.804688 -2.929688 3.90625 -3.160156 3.90625 -3.453125 Z M 3.90625 -3.453125 "/></g></g></g><g fill="#000000" fill-opacity="1"><g transform="translate(117.117379, 258.252487)"><g><path d="M 5.125 -2.4375 C 5.125 -1.9375 5.023438 -1.492188 4.828125 -1.109375 C 4.640625 -0.734375 4.363281 -0.441406 4 -0.234375 C 3.644531 -0.0351562 3.222656 0.0625 2.734375 0.0625 C 2.234375 0.0625 1.800781 -0.0351562 1.4375 -0.234375 C 1.082031 -0.429688 0.804688 -0.71875 0.609375 -1.09375 C 0.421875 -1.476562 0.328125 -1.925781 0.328125 -2.4375 C 0.328125 -3.207031 0.539062 -3.8125 0.96875 -4.25 C 1.394531 -4.6875 1.984375 -4.90625 2.734375 -4.90625 C 3.222656 -4.90625 3.648438 -4.804688 4.015625 -4.609375 C 4.378906 -4.421875 4.65625 -4.140625 4.84375 -3.765625 C 5.03125 -3.390625 5.125 -2.945312 5.125 -2.4375 Z M 4.46875 -2.4375 C 4.46875 -3.039062 4.316406 -3.515625 4.015625 -3.859375 C 3.710938 -4.203125 3.285156 -4.375 2.734375 -4.375 C 2.179688 -4.375 1.753906 -4.203125 1.453125 -3.859375 C 1.148438 -3.523438 1 -3.050781 1 -2.4375 C 1 -1.832031 1.148438 -1.351562 1.453125 -1 C 1.765625 -0.644531 2.191406 -0.46875 2.734375 -0.46875 C 3.285156 -0.46875 3.710938 -0.640625 4.015625 -0.984375 C 4.316406 -1.328125 4.46875 -1.8125 4.46875 -2.4375 Z M 4.46875 -2.4375 "/></g></g></g><g fill="#000000" fill-opacity="1"><g transform="translate(124.306425, 258.252487)"><g><path d="M 2.6875 0 L 2 0 L 0.03125 -4.84375 L 0.71875 -4.84375 L 2.0625 -1.4375 L 2.34375 -0.578125 L 2.640625 -1.4375 L 3.96875 -4.84375 L 4.65625 -4.84375 Z M 2.6875 0 "/></g></g></g><g fill="#000000" fill-opacity="1"><g transform="translate(130.716427, 258.252487)"><g><path d="M 0.65625 0 L 0.65625 -4.84375 L 1.296875 -4.84375 L 1.296875 0 Z M 0.65625 0 "/></g></g></g><g fill="#000000" fill-opacity="1"><g transform="translate(134.391188, 258.252487)"><g><path d="M 4.734375 -2.46875 C 4.734375 -1.96875 4.632812 -1.53125 4.4375 -1.15625 C 4.25 -0.78125 3.976562 -0.492188 3.625 -0.296875 C 3.269531 -0.0976562 2.859375 0 2.390625 0 L 0.578125 0 L 0.578125 -4.84375 L 2.171875 -4.84375 C 2.992188 -4.84375 3.625 -4.632812 4.0625 -4.21875 C 4.507812 -3.8125 4.734375 -3.226562 4.734375 -2.46875 Z M 4.078125 -2.46875 C 4.078125 -3.070312 3.910156 -3.53125 3.578125 -3.84375 C 3.253906 -4.15625 2.78125 -4.3125 2.15625 -4.3125 L 1.234375 -4.3125 L 1.234375 -0.53125 L 2.3125 -0.53125 C 2.664062 -0.53125 2.976562 -0.609375 3.25 -0.765625 C 3.519531 -0.921875 3.722656 -1.144531 3.859375 -1.4375 C 4.003906 -1.726562 4.078125 -2.070312 4.078125 -2.46875 Z M 4.078125 -2.46875 "/></g></g></g><g fill="#000000" fill-opacity="1"><g transform="translate(141.188995, 258.252487)"><g><path d="M 0.65625 0 L 0.65625 -4.84375 L 1.296875 -4.84375 L 1.296875 0 Z M 0.65625 0 "/></g></g></g><g fill="#000000" fill-opacity="1"><g transform="translate(144.863758, 258.252487)"><g><path d="M 3.71875 0 L 1.125 -4.125 L 1.140625 -3.78125 L 1.15625 -3.21875 L 1.15625 0 L 0.578125 0 L 0.578125 -4.84375 L 1.34375 -4.84375 L 3.953125 -0.6875 C 3.921875 -1.132812 3.90625 -1.460938 3.90625 -1.671875 L 3.90625 -4.84375 L 4.5 -4.84375 L 4.5 0 Z M 3.71875 0 "/></g></g></g><g fill="#000000" fill-opacity="1"><g transform="translate(151.661567, 258.252487)"><g><path d="M 0.359375 -2.4375 C 0.359375 -3.226562 0.566406 -3.835938 0.984375 -4.265625 C 1.398438 -4.691406 1.992188 -4.90625 2.765625 -4.90625 C 3.296875 -4.90625 3.726562 -4.8125 4.0625 -4.625 C 4.394531 -4.445312 4.65625 -4.160156 4.84375 -3.765625 L 4.21875 -3.578125 C 4.070312 -3.859375 3.878906 -4.0625 3.640625 -4.1875 C 3.398438 -4.3125 3.101562 -4.375 2.75 -4.375 C 2.1875 -4.375 1.753906 -4.203125 1.453125 -3.859375 C 1.160156 -3.523438 1.015625 -3.050781 1.015625 -2.4375 C 1.015625 -1.832031 1.171875 -1.351562 1.484375 -1 C 1.796875 -0.644531 2.234375 -0.46875 2.796875 -0.46875 C 3.109375 -0.46875 3.398438 -0.515625 3.671875 -0.609375 C 3.941406 -0.703125 4.164062 -0.832031 4.34375 -1 L 4.34375 -1.875 L 2.890625 -1.875 L 2.890625 -2.421875 L 4.9375 -2.421875 L 4.9375 -0.75 C 4.6875 -0.488281 4.375 -0.285156 4 -0.140625 C 3.625 -0.00390625 3.222656 0.0625 2.796875 0.0625 C 2.285156 0.0625 1.847656 -0.0351562 1.484375 -0.234375 C 1.117188 -0.429688 0.835938 -0.71875 0.640625 -1.09375 C 0.453125 -1.476562 0.359375 -1.925781 0.359375 -2.4375 Z M 0.359375 -2.4375 "/></g></g></g><g fill="#000000" fill-opacity="1"><g transform="translate(158.850615, 258.252487)"><g/></g></g><g fill="#000000" fill-opacity="1"><g transform="translate(162.525378, 258.252487)"><g><path d="M 5.125 -2.4375 C 5.125 -1.757812 4.953125 -1.195312 4.609375 -0.75 C 4.273438 -0.3125 3.800781 -0.0546875 3.1875 0.015625 C 3.28125 0.304688 3.398438 0.515625 3.546875 0.640625 C 3.703125 0.773438 3.898438 0.84375 4.140625 0.84375 C 4.265625 0.84375 4.394531 0.828125 4.53125 0.796875 L 4.53125 1.25 C 4.3125 1.300781 4.109375 1.328125 3.921875 1.328125 C 3.578125 1.328125 3.289062 1.226562 3.0625 1.03125 C 2.84375 0.832031 2.660156 0.507812 2.515625 0.0625 C 2.066406 0.03125 1.675781 -0.0820312 1.34375 -0.28125 C 1.007812 -0.488281 0.753906 -0.773438 0.578125 -1.140625 C 0.410156 -1.515625 0.328125 -1.945312 0.328125 -2.4375 C 0.328125 -3.207031 0.539062 -3.8125 0.96875 -4.25 C 1.394531 -4.6875 1.984375 -4.90625 2.734375 -4.90625 C 3.222656 -4.90625 3.648438 -4.804688 4.015625 -4.609375 C 4.378906 -4.421875 4.65625 -4.140625 4.84375 -3.765625 C 5.03125 -3.390625 5.125 -2.945312 5.125 -2.4375 Z M 4.46875 -2.4375 C 4.46875 -3.039062 4.316406 -3.515625 4.015625 -3.859375 C 3.710938 -4.203125 3.285156 -4.375 2.734375 -4.375 C 2.179688 -4.375 1.753906 -4.203125 1.453125 -3.859375 C 1.148438 -3.523438 1 -3.050781 1 -2.4375 C 1 -1.832031 1.148438 -1.351562 1.453125 -1 C 1.765625 -0.644531 2.191406 -0.46875 2.734375 -0.46875 C 3.285156 -0.46875 3.710938 -0.640625 4.015625 -0.984375 C 4.316406 -1.328125 4.46875 -1.8125 4.46875 -2.4375 Z M 4.46875 -2.4375 "/></g></g></g><g fill="#000000" fill-opacity="1"><g transform="translate(169.714427, 258.252487)"><g><path d="M 2.515625 0.0625 C 2.117188 0.0625 1.769531 -0.00390625 1.46875 -0.140625 C 1.175781 -0.285156 0.945312 -0.492188 0.78125 -0.765625 C 0.625 -1.046875 0.546875 -1.378906 0.546875 -1.765625 L 0.546875 -4.84375 L 1.203125 -4.84375 L 1.203125 -1.8125 C 1.203125 -1.375 1.3125 -1.039062 1.53125 -0.8125 C 1.757812 -0.582031 2.082031 -0.46875 2.5 -0.46875 C 2.9375 -0.46875 3.273438 -0.582031 3.515625 -0.8125 C 3.765625 -1.050781 3.890625 -1.398438 3.890625 -1.859375 L 3.890625 -4.84375 L 4.53125 -4.84375 L 4.53125 -1.8125 C 4.53125 -1.425781 4.445312 -1.085938 4.28125 -0.796875 C 4.113281 -0.515625 3.878906 -0.300781 3.578125 -0.15625 C 3.273438 -0.0078125 2.921875 0.0625 2.515625 0.0625 Z M 2.515625 0.0625 "/></g></g></g><g fill="#000000" fill-opacity="1"><g transform="translate(176.512236, 258.252487)"><g><path d="M 4 0 L 3.453125 -1.421875 L 1.25 -1.421875 L 0.6875 0 L 0.015625 0 L 1.984375 -4.84375 L 2.734375 -4.84375 L 4.671875 0 Z M 2.359375 -4.34375 L 2.328125 -4.25 C 2.265625 -4.0625 2.175781 -3.816406 2.0625 -3.515625 L 1.453125 -1.921875 L 3.265625 -1.921875 L 2.640625 -3.515625 C 2.578125 -3.679688 2.507812 -3.863281 2.4375 -4.0625 Z M 2.359375 -4.34375 "/></g></g></g><g fill="#000000" fill-opacity="1"><g transform="translate(182.922238, 258.252487)"><g><path d="M 0.578125 0 L 0.578125 -4.84375 L 1.234375 -4.84375 L 1.234375 -0.53125 L 3.671875 -0.53125 L 3.671875 0 Z M 0.578125 0 "/></g></g></g><g fill="#000000" fill-opacity="1"><g transform="translate(188.553195, 258.252487)"><g><path d="M 0.65625 0 L 0.65625 -4.84375 L 1.296875 -4.84375 L 1.296875 0 Z M 0.65625 0 "/></g></g></g><g fill="#000000" fill-opacity="1"><g transform="translate(192.227958, 258.252487)"><g><path d="M 2.46875 -4.296875 L 2.46875 0 L 1.8125 0 L 1.8125 -4.296875 L 0.15625 -4.296875 L 0.15625 -4.84375 L 4.140625 -4.84375 L 4.140625 -4.296875 Z M 2.46875 -4.296875 "/></g></g></g><g fill="#000000" fill-opacity="1"><g transform="translate(198.24329, 258.252487)"><g><path d="M 2.671875 -2 L 2.671875 0 L 2.015625 0 L 2.015625 -2 L 0.15625 -4.84375 L 0.875 -4.84375 L 2.34375 -2.53125 L 3.8125 -4.84375 L 4.53125 -4.84375 Z M 2.671875 -2 "/></g></g></g><g fill="#000000" fill-opacity="1"><g transform="translate(204.653293, 258.252487)"><g/></g></g><g fill="#000000" fill-opacity="1"><g transform="translate(208.328056, 258.252487)"><g><path d="M 3.84375 0 L 3.84375 -2.234375 L 1.234375 -2.234375 L 1.234375 0 L 0.578125 0 L 0.578125 -4.84375 L 1.234375 -4.84375 L 1.234375 -2.796875 L 3.84375 -2.796875 L 3.84375 -4.84375 L 4.5 -4.84375 L 4.5 0 Z M 3.84375 0 "/></g></g></g><g fill="#000000" fill-opacity="1"><g transform="translate(215.125865, 258.252487)"><g><path d="M 0.578125 0 L 0.578125 -4.84375 L 4.25 -4.84375 L 4.25 -4.296875 L 1.234375 -4.296875 L 1.234375 -2.75 L 4.046875 -2.75 L 4.046875 -2.21875 L 1.234375 -2.21875 L 1.234375 -0.53125 L 4.390625 -0.53125 L 4.390625 0 Z M 0.578125 0 "/></g></g></g><g fill="#000000" fill-opacity="1"><g transform="translate(221.535867, 258.252487)"><g><path d="M 4 0 L 3.453125 -1.421875 L 1.25 -1.421875 L 0.6875 0 L 0.015625 0 L 1.984375 -4.84375 L 2.734375 -4.84375 L 4.671875 0 Z M 2.359375 -4.34375 L 2.328125 -4.25 C 2.265625 -4.0625 2.175781 -3.816406 2.0625 -3.515625 L 1.453125 -1.921875 L 3.265625 -1.921875 L 2.640625 -3.515625 C 2.578125 -3.679688 2.507812 -3.863281 2.4375 -4.0625 Z M 2.359375 -4.34375 "/></g></g></g><g fill="#000000" fill-opacity="1"><g transform="translate(227.94587, 258.252487)"><g><path d="M 0.578125 0 L 0.578125 -4.84375 L 1.234375 -4.84375 L 1.234375 -0.53125 L 3.671875 -0.53125 L 3.671875 0 Z M 0.578125 0 "/></g></g></g><g fill="#000000" fill-opacity="1"><g transform="translate(233.576827, 258.252487)"><g><path d="M 2.46875 -4.296875 L 2.46875 0 L 1.8125 0 L 1.8125 -4.296875 L 0.15625 -4.296875 L 0.15625 -4.84375 L 4.140625 -4.84375 L 4.140625 -4.296875 Z M 2.46875 -4.296875 "/></g></g></g><g fill="#000000" fill-opacity="1"><g transform="translate(239.592159, 258.252487)"><g><path d="M 3.84375 0 L 3.84375 -2.234375 L 1.234375 -2.234375 L 1.234375 0 L 0.578125 0 L 0.578125 -4.84375 L 1.234375 -4.84375 L 1.234375 -2.796875 L 3.84375 -2.796875 L 3.84375 -4.84375 L 4.5 -4.84375 L 4.5 0 Z M 3.84375 0 "/></g></g></g><g fill="#000000" fill-opacity="1"><g transform="translate(246.389968, 258.252487)"><g><path d="M 2.71875 -4.375 C 2.1875 -4.375 1.769531 -4.203125 1.46875 -3.859375 C 1.164062 -3.515625 1.015625 -3.039062 1.015625 -2.4375 C 1.015625 -1.84375 1.171875 -1.363281 1.484375 -1 C 1.796875 -0.644531 2.21875 -0.46875 2.75 -0.46875 C 3.425781 -0.46875 3.9375 -0.800781 4.28125 -1.46875 L 4.8125 -1.203125 C 4.613281 -0.785156 4.332031 -0.46875 3.96875 -0.25 C 3.613281 -0.0390625 3.195312 0.0625 2.71875 0.0625 C 2.226562 0.0625 1.804688 -0.0351562 1.453125 -0.234375 C 1.097656 -0.429688 0.828125 -0.71875 0.640625 -1.09375 C 0.453125 -1.476562 0.359375 -1.925781 0.359375 -2.4375 C 0.359375 -3.207031 0.566406 -3.8125 0.984375 -4.25 C 1.398438 -4.6875 1.976562 -4.90625 2.71875 -4.90625 C 3.226562 -4.90625 3.65625 -4.804688 4 -4.609375 C 4.34375 -4.410156 4.597656 -4.113281 4.765625 -3.71875 L 4.140625 -3.5 C 4.023438 -3.78125 3.84375 -3.992188 3.59375 -4.140625 C 3.351562 -4.296875 3.0625 -4.375 2.71875 -4.375 Z M 2.71875 -4.375 "/></g></g></g><g fill="#000000" fill-opacity="1"><g transform="translate(253.187777, 258.252487)"><g><path d="M 4 0 L 3.453125 -1.421875 L 1.25 -1.421875 L 0.6875 0 L 0.015625 0 L 1.984375 -4.84375 L 2.734375 -4.84375 L 4.671875 0 Z M 2.359375 -4.34375 L 2.328125 -4.25 C 2.265625 -4.0625 2.175781 -3.816406 2.0625 -3.515625 L 1.453125 -1.921875 L 3.265625 -1.921875 L 2.640625 -3.515625 C 2.578125 -3.679688 2.507812 -3.863281 2.4375 -4.0625 Z M 2.359375 -4.34375 "/></g></g></g><g fill="#000000" fill-opacity="1"><g transform="translate(259.597771, 258.252487)"><g><path d="M 4 0 L 2.734375 -2.015625 L 1.234375 -2.015625 L 1.234375 0 L 0.578125 0 L 0.578125 -4.84375 L 2.859375 -4.84375 C 3.398438 -4.84375 3.816406 -4.71875 4.109375 -4.46875 C 4.410156 -4.226562 4.5625 -3.890625 4.5625 -3.453125 C 4.5625 -3.097656 4.457031 -2.796875 4.25 -2.546875 C 4.039062 -2.304688 3.75 -2.148438 3.375 -2.078125 L 4.75 0 Z M 3.90625 -3.453125 C 3.90625 -3.734375 3.804688 -3.945312 3.609375 -4.09375 C 3.421875 -4.238281 3.144531 -4.3125 2.78125 -4.3125 L 1.234375 -4.3125 L 1.234375 -2.53125 L 2.8125 -2.53125 C 3.15625 -2.53125 3.421875 -2.609375 3.609375 -2.765625 C 3.804688 -2.929688 3.90625 -3.160156 3.90625 -3.453125 Z M 3.90625 -3.453125 "/></g></g></g><g fill="#000000" fill-opacity="1"><g transform="translate(266.39558, 258.252487)"><g><path d="M 0.578125 0 L 0.578125 -4.84375 L 4.25 -4.84375 L 4.25 -4.296875 L 1.234375 -4.296875 L 1.234375 -2.75 L 4.046875 -2.75 L 4.046875 -2.21875 L 1.234375 -2.21875 L 1.234375 -0.53125 L 4.390625 -0.53125 L 4.390625 0 Z M 0.578125 0 "/></g></g></g></svg>